<svg width="60" height="60" viewBox="0 0 60 60" fill="none" xmlns="http://www.w3.org/2000/svg">
<path d="M29.9999 0.826904C13.9174 0.826904 0.833252 13.9111 0.833252 29.9936V42.0773C0.833252 45.064 3.4495 47.4936 6.66659 47.4936H9.58325C10.3568 47.4936 11.0987 47.1863 11.6456 46.6393C12.1926 46.0923 12.4999 45.3505 12.4999 44.5769V29.5765C12.4999 28.8029 12.1926 28.0611 11.6456 27.5141C11.0987 26.9671 10.3568 26.6598 9.58325 26.6598H6.93492C8.55659 15.3723 18.2691 6.66024 29.9999 6.66024C41.7308 6.66024 51.4433 15.3723 53.0649 26.6598H50.4166C49.643 26.6598 48.9012 26.9671 48.3542 27.5141C47.8072 28.0611 47.4999 28.8029 47.4999 29.5765V47.4936C47.4999 50.7107 44.8837 53.3269 41.6666 53.3269H35.8333V50.4102H24.1666V59.1602H41.6666C48.1008 59.1602 53.3333 53.9277 53.3333 47.4936C56.5503 47.4936 59.1666 45.064 59.1666 42.0773V29.9936C59.1666 13.9111 46.0824 0.826904 29.9999 0.826904Z" fill="white"/>
</svg>
