<svg width="36" height="36" viewBox="0 0 36 36" fill="none" xmlns="http://www.w3.org/2000/svg">
<path d="M15.0002 28.5C14.6497 28.5007 14.3101 28.3786 14.0402 28.155C13.8883 28.0291 13.7628 27.8744 13.6707 27.6999C13.5787 27.5254 13.522 27.3344 13.5039 27.138C13.4858 26.9415 13.5066 26.7434 13.5652 26.555C13.6237 26.3666 13.7189 26.1916 13.8452 26.04L20.5652 18L14.0852 9.945C13.9606 9.79157 13.8676 9.61503 13.8114 9.42552C13.7553 9.23601 13.7371 9.03727 13.758 8.84073C13.7789 8.64419 13.8385 8.45371 13.9332 8.28026C14.028 8.1068 14.1561 7.95379 14.3102 7.83C14.4654 7.69345 14.6471 7.59045 14.844 7.52746C15.0409 7.46448 15.2487 7.44287 15.4544 7.464C15.66 7.48513 15.8591 7.54853 16.039 7.65024C16.219 7.75194 16.376 7.88974 16.5002 8.055L23.7452 17.055C23.9658 17.3234 24.0864 17.6601 24.0864 18.0075C24.0864 18.3549 23.9658 18.6916 23.7452 18.96L16.2452 27.96C16.0947 28.1415 15.9036 28.285 15.6873 28.3788C15.4709 28.4727 15.2356 28.5142 15.0002 28.5Z" fill="#737373"/>
</svg>
